├É┼í├É┬╛├É┬╜├æΓÇá├É┬╡├æΓé¼├æΓÇÜ ├É┬╗├É┬╡├É┬│├É┬╡├É┬╜├É┬┤├æΓÇ╣ ├É┬▒├É┬╡├É┬╗├É┬╛├æΓé¼├æ╞Æ├æ┬ü├æ┬ü├É┬║├É┬╛├É┬│├É┬╛ ├æΓé¼├É┬╛├É┬║-├É┬╜-├æΓé¼├É┬╛├É┬╗├É┬╗├É┬░ ├É┬É├É┬╗├É┬╡├É┬║├æ┬ü├É┬░├É┬╜├É┬┤├æΓé¼├É┬░ ├É┼╕├É┬╛├É┬╝├É┬╕├É┬┤├É┬╛├æΓé¼├É┬╛├É┬▓├É┬░ ├É┬▓ ├É┬¥├É┬╕├É┬║├É┬╛├É┬╗├É┬░├É┬╡├É┬▓├É┬╡ 24 ├É┬╛├É┬║├æΓÇÜ├æ┬Å├É┬▒├æΓé¼├æ┬Å 2009 ├É┬│├É┬╛├É┬┤├É┬░.

General
Format                           : AVI
Format/Info                      : Audio Video Interleave
File size                        : 1.10 GiB
Duration                         : 1h 16mn
Overall bit rate                 : 2 058 Kbps


Video
Codec ID/Hint                    : DivX 5
Duration                         : 1h 16mn
Bit rate                         : 1 600 Kbps
Width                            : 720 pixels
Height                           : 400 pixels
Display aspect ratio             : 16:9
Frame rate                       : 25.000 fps
Resolution                       : 24 bits
Colorimetry                      : 4:2:0
Scan type                        : Progressive
Bits/(Pixel*Frame)               : 0.222
Stream size                      : 879 MiB (78%)
Writing library                  : DivX 6.8.5 (UTC 2009-08-20)

Audio
Format                           : AC-3
Duration                         : 1h 16mn
Bit rate                         : 448 Kbps
Channel(s)                       : 6 channels
Channel positions                : Front: L C R, Surround: L R, LFE
Sampling rate                    : 48.0 KHz
Stream size                      : 246 MiB (22%)
